<svg xmlns="http://www.w3.org/2000/svg" viewBox="0 0 800 450" width="100%" height="100%">
  <defs>
    <linearGradient id="bgGrad4" x1="0%" y1="0%" x2="100%" y2="100%">
      <stop offset="0%" stop-color="#0B1014"/>
      <stop offset="100%" stop-color="#111820"/>
    </linearGradient>
  </defs>

  <rect width="800" height="450" fill="url(#bgGrad4)"/>
  
  <g opacity="0.15" stroke="#35B8C5" stroke-width="0.5">
    <line x1="0" y1="75" x2="800" y2="75"/>
    <line x1="0" y1="150" x2="800" y2="150"/>
    <line x1="0" y1="225" x2="800" y2="225"/>
    <line x1="0" y1="300" x2="800" y2="300"/>
    <line x1="0" y1="375" x2="800" y2="375"/>
  </g>

  <!-- Title -->
  <text x="40" y="48" fill="#35B8C5" font-family="monospace" font-size="12" letter-spacing="2">DIU ACADEMIC ANALYTICS · DETERMINISTIC GPA PROJECTION &amp; SCENARIO PLANNER</text>
  <rect x="580" y="32" width="180" height="24" rx="4" fill="#18242F" stroke="#2B3D4C"/>
  <text x="590" y="48" fill="#35B8C5" font-family="monospace" font-size="11">LIVE PRODUCTION WEB APP</text>

  <!-- Metric Card 1 -->
  <rect x="40" y="80" width="220" height="100" rx="8" fill="#141E27" stroke="#26323B"/>
  <text x="60" y="105" fill="#95A3AE" font-family="monospace" font-size="11">CREDIT-WEIGHTED CGPA</text>
  <text x="60" y="145" fill="#E8EEF2" font-family="sans-serif" font-weight="bold" font-size="28">3.93 / 4.00</text>
  <text x="60" y="165" fill="#35B8C5" font-family="sans-serif" font-size="11">112 Earned Credits</text>

  <!-- Metric Card 2 -->
  <rect x="290" y="80" width="220" height="100" rx="8" fill="#141E27" stroke="#26323B"/>
  <text x="310" y="105" fill="#95A3AE" font-family="monospace" font-size="11">GRADUATION TARGET</text>
  <text x="310" y="145" fill="#E8EEF2" font-family="sans-serif" font-weight="bold" font-size="28">3.90+ Honors</text>
  <text x="310" y="165" fill="#79A7E8" font-family="sans-serif" font-size="11">Target Margin: +0.03 buffer</text>

  <!-- Metric Card 3 -->
  <rect x="540" y="80" width="220" height="100" rx="8" fill="#141E27" stroke="#087F8C" stroke-width="1.5"/>
  <text x="560" y="105" fill="#35B8C5" font-family="monospace" font-size="11">REQUIRED REMAINING GPA</text>
  <text x="560" y="145" fill="#35B8C5" font-family="sans-serif" font-weight="bold" font-size="28">3.78 Avg</text>
  <text x="560" y="165" fill="#95A3AE" font-family="sans-serif" font-size="11">Across 36 Remaining Credits</text>

  <!-- Interactive Scenario Chart Panel -->
  <rect x="40" y="200" width="720" height="210" rx="8" fill="#111820" stroke="#26323B"/>
  <text x="60" y="230" fill="#E8EEF2" font-family="sans-serif" font-weight="600" font-size="14">Multi-Semester Progression &amp; Simulation Trajectory</text>

  <!-- Chart axes and bars -->
  <g transform="translate(70, 250)">
    <line x1="0" y1="120" x2="660" y2="120" stroke="#26323B" stroke-width="2"/>
    
    <!-- Sem 1 -->
    <rect x="30" y="20" width="40" height="100" fill="#18242F" stroke="#35B8C5" rx="3"/>
    <text x="35" y="15" fill="#E8EEF2" font-family="monospace" font-size="10">3.90</text>
    <text x="32" y="138" fill="#95A3AE" font-family="monospace" font-size="10">Sem 1</text>

    <!-- Sem 2 -->
    <rect x="100" y="10" width="40" height="110" fill="#18242F" stroke="#35B8C5" rx="3"/>
    <text x="105" y="5" fill="#E8EEF2" font-family="monospace" font-size="10">3.95</text>
    <text x="102" y="138" fill="#95A3AE" font-family="monospace" font-size="10">Sem 2</text>

    <!-- Sem 3 -->
    <rect x="170" y="15" width="40" height="105" fill="#18242F" stroke="#35B8C5" rx="3"/>
    <text x="175" y="10" fill="#E8EEF2" font-family="monospace" font-size="10">3.92</text>
    <text x="172" y="138" fill="#95A3AE" font-family="monospace" font-size="10">Sem 3</text>

    <!-- Sem 4 -->
    <rect x="240" y="0" width="40" height="120" fill="#18242F" stroke="#35B8C5" rx="3"/>
    <text x="245" y="-5" fill="#E8EEF2" font-family="monospace" font-size="10">4.00</text>
    <text x="242" y="138" fill="#95A3AE" font-family="monospace" font-size="10">Sem 4</text>

    <!-- Sem 5 -->
    <rect x="310" y="12" width="40" height="108" fill="#18242F" stroke="#35B8C5" rx="3"/>
    <text x="315" y="7" fill="#E8EEF2" font-family="monospace" font-size="10">3.94</text>
    <text x="312" y="138" fill="#95A3AE" font-family="monospace" font-size="10">Sem 5</text>

    <!-- Sem 6 -->
    <rect x="380" y="15" width="40" height="105" fill="#18242F" stroke="#35B8C5" rx="3"/>
    <text x="385" y="10" fill="#E8EEF2" font-family="monospace" font-size="10">3.91</text>
    <text x="382" y="138" fill="#95A3AE" font-family="monospace" font-size="10">Sem 6</text>

    <!-- Projected Sem 7 -->
    <rect x="470" y="18" width="40" height="102" fill="#18242F" stroke="#79A7E8" stroke-dasharray="3,3" rx="3"/>
    <text x="475" y="13" fill="#79A7E8" font-family="monospace" font-size="10">3.88*</text>
    <text x="472" y="138" fill="#79A7E8" font-family="monospace" font-size="10">Sim 7</text>

    <!-- Projected Sem 8 -->
    <rect x="540" y="12" width="40" height="108" fill="#18242F" stroke="#79A7E8" stroke-dasharray="3,3" rx="3"/>
    <text x="545" y="7" fill="#79A7E8" font-family="monospace" font-size="10">3.92*</text>
    <text x="542" y="138" fill="#79A7E8" font-family="monospace" font-size="10">Sim 8</text>
  </g>
</svg>
